<svg width="15" height="16" viewBox="0 0 15 16" fill="none" xmlns="http://www.w3.org/2000/svg">
    <path
        d="M10.5 8C10.5 9.65685 9.15685 11 7.5 11C5.84315 11 4.5 9.65685 4.5 8C4.5 6.34315 5.84315 5 7.5 5C9.15685 5 10.5 6.34315 10.5 8ZM10.5 8V9C10.5 10.1046 11.3954 11 12.5 11C13.2095 11 13.8328 10.6305 14.1878 10.0734C14.3855 9.76329 14.5 9.39502 14.5 9V8C14.5 4.13401 11.366 1 7.5 1C3.63401 1 0.5 4.13401 0.5 8C0.5 11.866 3.63401 15 7.5 15C8.98725 15 10.3662 14.5362 11.5 13.7453"
        stroke="#3A457D" />
</svg>
    