<svg width="331" height="282" viewBox="0 0 331 282" fill="none" xmlns="http://www.w3.org/2000/svg">
    <path
        d="M171.906 282H14.9522C11.3851 282 9.03671 279.118 9.69068 275.582L31.0935 157.743C31.7474 154.177 35.1362 151.325 38.7033 151.325H195.657C199.224 151.325 201.573 154.207 200.919 157.743L179.516 275.582C178.862 279.148 175.473 282 171.906 282Z"
        fill="#3A457D" />
    <path
        d="M82.3115 139.648L66.3783 118.404C65.3676 117.037 63.7624 116.265 62.0681 116.265H7.60985C4.63724 116.265 2.22943 118.671 2.22943 121.642V265.985C2.22943 269.996 5.4993 273.265 9.51232 273.265H162.899C166.912 273.265 170.182 269.996 170.182 265.985V149.839C170.182 145.828 166.912 142.56 162.899 142.56H88.1378C85.8489 142.56 83.6789 141.49 82.3115 139.648Z"
        fill="#FF864D" stroke="#3A457D" stroke-width="1.5" stroke-miterlimit="10" />
    <path
        d="M163.077 131.031H19.4111C13.6815 131.031 9.03668 135.674 9.03668 141.401V261.439C9.03668 267.166 13.6815 271.809 19.4111 271.809H163.077C168.807 271.809 173.452 267.166 173.452 261.439V141.401C173.452 135.674 168.807 131.031 163.077 131.031Z"
        fill="white" stroke="#3A457D" stroke-width="1.5" stroke-miterlimit="10" />
    <path
        d="M251.351 150.525L165.153 34.0879C161.95 29.7612 155.844 28.8492 151.515 32.0507L68.2871 93.6078C63.9585 96.8094 63.046 102.912 66.249 107.239L152.448 223.676C155.651 228.002 161.756 228.914 166.085 225.713L249.313 164.156C253.642 160.954 254.554 154.851 251.351 150.525Z"
        fill="white" stroke="#3A457D" stroke-width="1.5" stroke-miterlimit="10" />
    <path
        d="M166.08 273.265H9.12591C5.55877 273.265 3.21041 270.382 3.86439 266.847L25.2672 149.007C25.9211 145.442 29.3099 142.59 32.8771 142.59H189.831C193.398 142.59 195.746 145.472 195.092 149.007L173.69 266.847C173.036 270.412 169.647 273.265 166.08 273.265Z"
        fill="#FF864D" stroke="#3A457D" stroke-width="1.5" stroke-miterlimit="10" />
</svg>
    