<svg width="15" height="16" viewBox="0 0 15 16" fill="none" xmlns="http://www.w3.org/2000/svg">
    <path
        d="M4.71922 1H2.5C1.39543 1 0.5 1.89543 0.5 3V5C0.5 10.5228 4.97715 15 10.5 15H12.5C13.6046 15 14.5 14.1046 14.5 13V11.618C14.5 11.2393 14.286 10.893 13.9472 10.7236L11.5313 9.51564C10.987 9.24349 10.3278 9.51652 10.1354 10.0938L9.83762 10.9871C9.64474 11.5658 9.05118 11.9102 8.45309 11.7906C6.05929 11.3119 4.18814 9.44071 3.70938 7.04691C3.58976 6.44882 3.93422 5.85526 4.51286 5.66238L5.62149 5.29284C6.11721 5.1276 6.40214 4.60855 6.2754 4.10162L5.68937 1.75746C5.57807 1.3123 5.17809 1 4.71922 1Z"
        stroke="#3A457D" />
</svg>
    